<svg xmlns="http://www.w3.org/2000/svg" height="800" width="1200" viewBox="-28.4115 -42.375 246.233 254.25"><path d="M24.196 143.211h9.018c3.325 0 8.313.961 8.313 6.61 0 3.07-2.066 5.212-5.137 5.765v.077c3.511.33 5.911 2.695 5.911 5.873 0 6.501-5.837 7.466-9.086 7.466h-9.018l-.001-25.791m5.174 10.419h2.105c2.18 0 4.879-.48 4.879-3.144 0-2.99-2.626-3.21-4.989-3.21H29.37v6.354m0 11.308h2.438c2.402 0 5.319-.593 5.319-3.586 0-3.364-2.735-3.882-5.319-3.882H29.37zm-9.345 3.694c-1.885.445-3.918.81-5.875.81C5.802 169.44 0 165.267 0 156.547c0-8.827 5.393-13.779 14.15-13.779 1.699 0 3.955.334 5.836 1.073l-.369 4.36c-1.956-1.111-3.729-1.37-5.579-1.37-5.318 0-8.645 4.063-8.645 9.349 0 5.249 3.251 9.197 8.757 9.197 2.032 0 4.435-.438 5.654-1.069l.221 4.324m44.871 0c-1.881.445-3.918.81-5.873.81-8.351 0-14.153-4.175-14.153-12.895 0-8.827 5.396-13.779 14.153-13.779 1.699 0 3.955.334 5.836 1.073l-.371 4.36c-1.957-1.111-3.729-1.37-5.575-1.37-5.321 0-8.648 4.063-8.648 9.349 0 5.249 3.25 9.197 8.758 9.197 2.032 0 4.432-.438 5.654-1.069l.219 4.324m6.149-3.65h1.762c.603 0 1.253-.705 1.253-1.258v-15.167c0-.555-.65-1.355-1.253-1.355h-1.962v-4.418h8.991c.852 0 1.354.705 1.504 3.414 2.46-2.308 5.827-3.817 9.791-3.817 3.669 0 6.833 1.458 6.833 6.577v14.767c0 .603.649 1.258 1.254 1.258h1.405v4.165H87.618v-4.165h3.014v-13.509c0-2.61-1.009-3.364-3.467-3.364-2.108 0-4.067.45-5.777 1.003v15.871h3.063v4.166H71.045v-4.168m38.168-7.635c.301 5.224 2.614 7.637 6.83 7.637 3.264 0 4.416-1.158 5.773-2.864h4.168v4.819c-2.155 1.308-5.023 2.561-10.545 2.561-9.14 0-13.709-5.121-13.709-13.404 0-8.488 5.271-13.711 13.205-13.711 7.883 0 12 4.018 12 12.955 0 .904-.099 1.761-.099 2.01l-17.623-.003m.103-4.164h10.289c-.25-4.623-1.654-6.43-4.668-6.43-3.06 0-5.072 1.905-5.621 6.43zm38.213-1.16l-5.221 17.125h-6.279l-5.926-20.537c-.299-.806-.902-1.409-1.605-1.409h-.953v-4.418h11.648v4.418h-2.309l3.465 13.158h.1l5.123-17.576h5.621l5.127 17.576h.099l2.66-9.844c.651-2.308.403-3.314-1.656-3.314h-.754v-4.418h10.996v4.418h-.853c-.805 0-1.607.451-1.908 1.559l-5.975 20.387h-6.275l-5.023-17.123-.102-.002m20.889 16.021v-5.926h4.219c.602 1.856 2.963 3.009 5.271 3.009 2.813 0 4.521-1.199 4.521-3.109 0-1.959-1.158-2.762-5.371-3.363-5.677-.805-8.338-2.763-8.338-7.937 0-5.222 4.016-8.233 10.743-8.233 4.117 0 6.933.453 9.043 1.153v5.827h-4.067c-.857-1.555-2.463-2.563-5.226-2.563-2.71 0-4.218 1.104-4.218 2.767 0 1.605.956 2.559 5.424 3.213 6.376.95 8.991 2.712 8.991 8.031 0 5.175-3.47 8.539-11.452 8.539-4.77-.002-7.381-.706-9.54-1.408" fill="#231F20"/><path d="M92.326 90.447c12.611 0 22.831-10.654 22.831-23.808 0-13.157-10.22-23.814-22.831-23.814-12.615 0-22.845 10.659-22.845 23.814 0 13.154 10.23 23.808 22.845 23.808m-26.365 0c-12.619 0-22.846-10.654-22.846-23.808 0-13.157 10.227-23.826 22.846-23.826v47.634m52.728 26.282l.009-22.604 21.678.013c0 12.493-9.708 22.591-21.687 22.591M65.961 16.527v22.625l-21.707.002c0-12.494 9.724-22.627 21.707-22.627m0 100.213V94.127l-21.701.013c0 12.491 9.711 22.6 21.701 22.6m79.115-29.636l-.014-40.931c6.687 4.154 11.16 11.765 11.16 20.468.007 8.699-4.473 16.303-11.146 20.463M72.703 11.63l39.246.001C107.966 4.662 100.676 0 92.334 0c-8.352 0-15.649 4.662-19.631 11.63m38.955 110.018l-39.25-.004c3.986 6.964 11.276 11.636 19.624 11.636 8.347 0 15.636-4.665 19.626-11.632m3.499-27.508c0 13.157-10.22 23.813-22.831 23.813-12.615 0-22.845-10.658-22.845-23.813h45.676m3.544-3.693c12.605 0 22.841-10.654 22.841-23.808 0-13.157-10.233-23.826-22.841-23.826v47.634m-3.544-51.266c0-13.146-10.22-23.814-22.831-23.814-12.615 0-22.845 10.668-22.845 23.814h45.676M39.583 87.104l.011-40.931c-6.688 4.154-11.159 11.765-11.159 20.468 0 8.699 4.471 16.303 11.148 20.463m100.793-47.937l-21.675-.015-.012-22.607c11.979-.001 21.687 10.124 21.687 22.622" fill="#EC1C2E"/></svg>